<svg xmlns="http://www.w3.org/2000/svg" width="1200" height="630" viewBox="0 0 1200 630" role="img" aria-label="Spooled Cloud Dashboard">
  <rect width="1200" height="630" fill="#0f172a"/>
  <path d="M0 520 C160 460 260 590 420 530 C580 470 680 340 840 390 C1000 440 1060 540 1200 480 V630 H0 Z" fill="#10b981" opacity="0.16"/>
  <circle cx="154" cy="158" r="52" fill="#10b981"/>
  <path d="M132 146h44a20 20 0 0 1 0 40h-44a20 20 0 0 1 0-40zm0-48h44a20 20 0 0 1 0 40h-44a20 20 0 0 1 0-40zm64 24h44a20 20 0 0 1 0 40h-44a20 20 0 0 1 0-40z" fill="#ecfdf5"/>
  <text x="88" y="280" fill="#f8fafc" font-family="Inter, ui-sans-serif, system-ui, -apple-system, BlinkMacSystemFont, 'Segoe UI', sans-serif" font-size="72" font-weight="800">Spooled Cloud</text>
  <text x="92" y="352" fill="#cbd5e1" font-family="Inter, ui-sans-serif, system-ui, -apple-system, BlinkMacSystemFont, 'Segoe UI', sans-serif" font-size="38" font-weight="500">Dashboard for queues, workers, workflows, and schedules</text>
  <rect x="88" y="430" width="320" height="8" rx="4" fill="#10b981"/>
</svg>
